<?xml version="1.0" encoding="UTF-8"?>
<svg version="1.1" xmlns="http://www.w3.org/2000/svg" width="512" height="512">
<path d="M0 0 C3.49753397 2.06605382 6.67359602 4.57977567 9.89453125 7.046875 C15.03641384 10.85567692 20.46577337 11.25994805 26.6875 10.375 C32.94994893 8.14957762 37.70969356 4.6582288 42.6875 0.375 C48.93478221 -2.70570446 56.23665005 -2.62682361 62.9609375 -1.11328125 C79.16198003 5.66470593 89.81308586 29.33579166 96.6875 44.375 C97.22117187 45.51839844 97.75484375 46.66179688 98.3046875 47.83984375 C110.67911506 76.33949685 113.51809222 108.88188661 108.6875 139.375 C109.34532471 139.12331055 110.00314941 138.87162109 110.6809082 138.61230469 C155.99358162 121.41563482 201.6866529 118.87266605 246.67578125 138.69140625 C252.79170032 141.80589949 256.98910095 145.97820189 260.0625 152.125 C261.57274534 159.97827578 261.05767875 165.95102286 258.125 173.4375 C255.80033825 179.49751568 254.70283476 184.09386165 256.6875 190.375 C259.05283955 195.5751358 262.03229329 199.04985235 266.6875 202.375 C271.89458652 206.25386806 275.94167041 209.95320579 277.6875 216.375 C279.05833021 226.25689781 277.55274051 233.35242965 271.6875 241.375 C268.59018694 245.35242387 265.31723132 249.16309559 261.96679688 252.92822266 C260.86037477 254.17949315 259.77927537 255.45306979 258.703125 256.73046875 C254.72911528 261.44276926 250.48770426 265.50961141 245.6875 269.375 C245.15012207 269.80828613 244.61274414 270.24157227 244.05908203 270.68798828 C225.97564818 285.12245225 205.73641284 295.64869604 183.5625 302.3125 C182.90048584 302.51206299 182.23847168 302.71162598 181.55639648 302.91723633 C176.64448377 304.30429666 171.76668879 304.93597632 166.6875 305.375 C167.44933594 306.35597656 168.21117187 307.33695312 168.99609375 308.34765625 C192.45744553 338.87259979 206.85458688 373.42550209 206.875 412.3125 C206.88724609 413.53646484 206.89949219 414.76042969 206.91210938 416.02148438 C206.92867629 426.28744809 206.60977963 435.23173979 199.1171875 443.00390625 C194.2850216 447.50020411 189.81664501 449.32763997 183.07421875 449.4296875 C181.85347656 449.37039063 180.63273437 449.31109375 179.375 449.25 C171.07519111 449.15148595 165.08209034 450.34938687 158.8125 455.9375 C156.26568469 459.46729665 155.03749391 463.54361902 153.640625 467.62890625 C150.73610351 475.9972612 147.05912412 481.6267272 139 485.75 C115.74442736 490.13784389 91.29918227 475.86777303 72.6875 463.375 C53.04801495 449.79439465 35.86532474 432.12862641 23.9609375 411.36328125 C23.54070312 410.70714844 23.12046875 410.05101562 22.6875 409.375 C22.0275 409.375 21.3675 409.375 20.6875 409.375 C19.20948889 411.41597828 19.20948889 411.41597828 17.6875 414.0625 C-3.50648248 448.19136663 -38.26554767 476.49069952 -77.8046875 485.97265625 C-86.2847889 487.33317096 -93.98460779 487.21638188 -101.3125 482.375 C-106.99543387 478.09624093 -108.93535226 471.76717994 -111.0456543 465.23730469 C-112.93963715 459.57926143 -115.38932541 455.36275872 -120.4609375 451.9140625 C-127.03712166 449.21436585 -132.77015128 449.23610164 -139.82421875 449.40625 C-147.39907562 449.33839014 -152.15238972 446.35929389 -157.6171875 441.26953125 C-166.96424475 430.82408708 -163.80292951 411.24241733 -163.3125 398.375 C-160.97843004 365.74312337 -146.37169563 335.40575833 -126.51416016 309.9621582 C-125.38860616 308.47552136 -124.34682786 306.92649179 -123.3125 305.375 C-124.611875 305.26414062 -125.91125 305.15328125 -127.25 305.0390625 C-132.15599294 304.4890547 -136.6325109 303.28584476 -141.3125 301.75 C-142.13355225 301.48348633 -142.95460449 301.21697266 -143.80053711 300.94238281 C-167.25043282 293.17760627 -187.92460448 282.2100639 -206.14453125 265.3515625 C-208.40343245 263.23946966 -208.40343245 263.23946966 -211.375 261 C-220.19058531 253.12224291 -233.18666116 239.11800073 -234.74609375 227.0078125 C-234.75504976 218.96531356 -234.5682543 212.69395857 -228.734375 206.7734375 C-226.39741081 204.72069868 -223.96430092 202.84680569 -221.4453125 201.0234375 C-216.27825058 197.05389208 -213.74708081 192.75510939 -212.3125 186.375 C-211.97169063 180.88796913 -213.17624929 176.42606343 -215.375 171.4375 C-218.36229527 164.45620189 -218.50399453 157.66804433 -215.75 150.5625 C-209.51491481 138.58177316 -194.48851526 134.52856113 -182.375 130.625 C-143.45238721 118.66762801 -102.44145939 124.33812777 -65.3125 139.375 C-65.5290625 138.13363281 -65.5290625 138.13363281 -65.75 136.8671875 C-72.2330024 95.17788043 -62.22091921 50.52217068 -37.41015625 16.28515625 C-28.30611735 4.17227357 -16.40934629 -7.81397442 0 0 Z " fill="#FFC8D2" transform="translate(234.3125,13.625)"/>
<path d="M0 0 C3.49753397 2.06605382 6.67359602 4.57977567 9.89453125 7.046875 C15.03641384 10.85567692 20.46577337 11.25994805 26.6875 10.375 C32.94994893 8.14957762 37.70969356 4.6582288 42.6875 0.375 C48.93478221 -2.70570446 56.23665005 -2.62682361 62.9609375 -1.11328125 C79.16198003 5.66470593 89.81308586 29.33579166 96.6875 44.375 C97.22117187 45.51839844 97.75484375 46.66179688 98.3046875 47.83984375 C107.89353905 69.92401222 111.38819587 94.32004041 110.74609375 118.24609375 C110.66017375 121.58693941 110.79123675 124.77738075 111.16015625 128.09765625 C111.51706076 132.44260136 111.83115162 136.4456781 109.6875 140.375 C104.71105867 144.92774215 98.28005063 147.46030115 92.19287109 150.19140625 C74.51999853 158.54046941 58.81842655 174.63587259 47.14453125 189.96875 C46.74049072 190.4937207 46.3364502 191.01869141 45.92016602 191.55957031 C44.59553552 193.41124018 44.59553552 193.41124018 43.54663086 195.77636719 C42.14845514 198.49331013 40.99070897 200.35291194 38.6875 202.375 C33.96130181 203.38292582 29.41884405 202.99357071 24.625 202.625 C8.32722253 201.54690413 -2.69294656 205.65102608 -15.23828125 215.95703125 C-23.19057159 223.20401868 -29.46905671 234.29248651 -30.59570312 245.08886719 C-30.71374958 248.00301396 -30.72214773 250.89631621 -30.6875 253.8125 C-30.70490234 255.27139648 -30.70490234 255.27139648 -30.72265625 256.75976562 C-30.68506281 266.13932953 -28.70619674 273.80330657 -23.625 281.75 C-20.3125 286.94849896 -20.3125 286.94849896 -20.3125 291.375 C-58.50652829 311.22624061 -102.52234792 313.4520224 -143.46386719 301.27539062 C-166.64785826 293.94743733 -188.38397248 282.31429179 -206.0625 265.50390625 C-208.38523227 263.23853514 -208.38523227 263.23853514 -211.4375 260.9375 C-220.23757731 253.09395283 -233.19181932 239.07794367 -234.74609375 227.0078125 C-234.75504976 218.96531356 -234.5682543 212.69395857 -228.734375 206.7734375 C-226.39741081 204.72069868 -223.96430092 202.84680569 -221.4453125 201.0234375 C-216.27825058 197.05389208 -213.74708081 192.75510939 -212.3125 186.375 C-211.97169063 180.88796913 -213.17624929 176.42606343 -215.375 171.4375 C-218.36229527 164.45620189 -218.50399453 157.66804433 -215.75 150.5625 C-209.51491481 138.58177316 -194.48851526 134.52856113 -182.375 130.625 C-143.45238721 118.66762801 -102.44145939 124.33812777 -65.3125 139.375 C-65.5290625 138.13363281 -65.5290625 138.13363281 -65.75 136.8671875 C-72.2330024 95.17788043 -62.22091921 50.52217068 -37.41015625 16.28515625 C-28.30611735 4.17227357 -16.40934629 -7.81397442 0 0 Z " fill="#FF9DB0" transform="translate(234.3125,13.625)"/>
<path d="M0 0 C31.45694136 6.61841588 57.98224706 20.74322912 80.6171875 43.6484375 C82.53862436 45.54467519 84.43888135 47.16396382 86.5625 48.8125 C112.32707487 71.2228189 128.48307599 112.63596164 131 146 C131.16182845 150.64663177 131.18505951 155.28835833 131.1875 159.9375 C131.19974609 161.16146484 131.21199219 162.38542969 131.22460938 163.64648438 C131.24117629 173.91244809 130.92227963 182.85673979 123.4296875 190.62890625 C118.5975216 195.12520411 114.12914501 196.95263997 107.38671875 197.0546875 C105.55560547 196.96574219 105.55560547 196.96574219 103.6875 196.875 C95.38769111 196.77648595 89.39459034 197.97438687 83.125 203.5625 C80.57818469 207.09229665 79.34999391 211.16861902 77.953125 215.25390625 C75.04860351 223.6222612 71.37162412 229.2517272 63.3125 233.375 C40.05692736 237.76284389 15.61168227 223.49277303 -3 211 C-22.63948505 197.41939465 -39.82217526 179.75362641 -51.7265625 158.98828125 C-52.14679688 158.33214844 -52.56703125 157.67601562 -53 157 C-53.66 157 -54.32 157 -55 157 C-56.47801111 159.04097828 -56.47801111 159.04097828 -58 161.6875 C-79.19398248 195.81636663 -113.95304767 224.11569952 -153.4921875 233.59765625 C-161.9722889 234.95817096 -169.67210779 234.84138188 -177 230 C-182.68293387 225.72124093 -184.62285226 219.39217994 -186.7331543 212.86230469 C-188.62713715 207.20426143 -191.07682541 202.98775872 -196.1484375 199.5390625 C-202.72462166 196.83936585 -208.45765128 196.86110164 -215.51171875 197.03125 C-223.08657562 196.96339014 -227.83988972 193.98429389 -233.3046875 188.89453125 C-239.05822688 182.4648847 -239.14128383 174.19446235 -239 166 C-238.32662598 166.06928711 -237.65325195 166.13857422 -236.95947266 166.20996094 C-216.8070362 168.10356891 -194.72532048 169.01306487 -175 164 C-174.19949219 163.80664062 -173.39898437 163.61328125 -172.57421875 163.4140625 C-141.30884278 155.72818859 -114.76969266 140.43902289 -91 119 C-90.25105469 118.32453125 -89.50210938 117.6490625 -88.73046875 116.953125 C-73.48316524 102.42005363 -59.92884898 82.45635646 -52.78125 62.6171875 C-51.73809281 59.76340746 -50.83451098 57.42383576 -49 55 C-46.35173799 53.98284746 -43.98651505 53.74313882 -41.1640625 53.48828125 C-28.43491265 51.52390627 -17.49791313 42.05397244 -10.125 32 C-3.47455345 21.87567314 -1.13541045 11.92180977 0 0 Z " fill="#FF9DB0" transform="translate(310,266)"/>
<path d="M0 0 C1.10601562 0.38285156 2.21203125 0.76570312 3.3515625 1.16015625 C6 3 6 3 7.1796875 6.67578125 C7.43057759 8.21836594 7.66095726 9.7643724 7.875 11.3125 C12.91614996 39.89554481 27.05381353 66.09022964 47 87 C46.00439792 89.57739979 44.96868408 92.06130329 43.7109375 94.5234375 C40.21160302 101.99277718 39.51704743 108.50604686 39.5 116.6875 C39.49403809 117.64897949 39.48807617 118.61045898 39.48193359 119.60107422 C39.64207103 128.84940763 41.67797561 136.54039792 46.6875 144.375 C50 149.57349896 50 149.57349896 50 154 C11.80597171 173.85124061 -32.20984792 176.0770224 -73.15136719 163.90039062 C-96.33535826 156.57243733 -118.07147248 144.93929179 -135.75 128.12890625 C-138.07273227 125.86353514 -138.07273227 125.86353514 -141.125 123.5625 C-149.92507731 115.71895283 -162.87931932 101.70294367 -164.43359375 89.6328125 C-164.44254976 81.59031356 -164.2557543 75.31895857 -158.421875 69.3984375 C-156.08491081 67.34569868 -153.65180092 65.47180569 -151.1328125 63.6484375 C-145.96575058 59.67889208 -143.43458081 55.38010939 -142 49 C-141.65919063 43.51296913 -142.86374929 39.05106343 -145.0625 34.0625 C-148.04979527 27.08120189 -148.19149453 20.29304433 -145.4375 13.1875 C-139.20241481 1.20677316 -124.17601526 -2.84643887 -112.0625 -6.75 C-75.57822333 -17.9582935 -35.09348616 -14.20820347 0 0 Z " fill="#FFB1C0" transform="translate(164,151)"/>
<path d="M0 0 C3.49753397 2.06605382 6.67359602 4.57977567 9.89453125 7.046875 C15.03641384 10.85567692 20.46577337 11.25994805 26.6875 10.375 C32.94994893 8.14957762 37.70969356 4.6582288 42.6875 0.375 C48.91637113 -2.69662545 56.53654127 -2.83243296 63.171875 -0.90234375 C67.5010811 1.1076448 69.78795624 3.54912497 72.6875 7.375 C72.25630859 7.7153125 71.82511719 8.055625 71.38085938 8.40625 C31.47969853 40.09122672 3.21246146 81.73729199 -6.3125 132.375 C-6.47476074 133.23206543 -6.63702148 134.08913086 -6.80419922 134.97216797 C-10.90674149 157.66951482 -10.32014286 180.55415677 -6.58789062 203.25390625 C-6.3125 205.375 -6.3125 205.375 -6.3125 209.375 C-7.78125 210.76171875 -7.78125 210.76171875 -9.8125 212.0625 C-14.76918158 215.50562346 -18.46098086 219.76546911 -22.3125 224.375 C-38.23754041 217.39033315 -49.15389732 191.5977718 -55.3125 176.375 C-71.8408529 133.90361475 -71.88949604 86.18938012 -53.5703125 44.15625 C-46.5834986 28.97563921 -35.8056967 6.9268748 -20.01171875 -0.7421875 C-13.7773097 -2.78122722 -5.98748405 -2.85118288 0 0 Z " fill="#FF889E" transform="translate(234.3125,13.625)"/>
<path d="M0 0 C9.21577595 27.64732786 -1.66875448 66.15573495 -14.00390625 91.125 C-15.20967104 93.52842714 -16.4512572 95.90291189 -17.71484375 98.27734375 C-19.21342948 100.95037109 -19.21342948 100.95037109 -19 104 C-20.35986328 105.48339844 -20.35986328 105.48339844 -22 107 C-23.18289139 108.72281743 -24.36267975 110.44800476 -25.51464844 112.19165039 C-47.20620113 145.01316524 -80.64713854 172.28215078 -119.4921875 181.59765625 C-127.9722889 182.95817096 -135.67210779 182.84138188 -143 178 C-148.68293387 173.72124093 -150.62285226 167.39217994 -152.7331543 160.86230469 C-154.62713715 155.20426143 -157.07682541 150.98775872 -162.1484375 147.5390625 C-168.72462166 144.83936585 -174.45765128 144.86110164 -181.51171875 145.03125 C-189.08657562 144.96339014 -193.83988972 141.98429389 -199.3046875 136.89453125 C-205.05822688 130.4648847 -205.14128383 122.19446235 -205 114 C-204.32662598 114.06928711 -203.65325195 114.13857422 -202.95947266 114.20996094 C-182.8070362 116.10356891 -160.72532048 117.01306487 -141 112 C-140.19949219 111.80664062 -139.39898437 111.61328125 -138.57421875 111.4140625 C-107.30884278 103.72818859 -80.76969266 88.43902289 -57 67 C-56.25105469 66.32453125 -55.50210938 65.6490625 -54.73046875 64.953125 C-39.48316524 50.42005363 -25.92884898 30.45635646 -18.78125 10.6171875 C-17.73079567 7.74344459 -16.86970156 5.42403518 -15 3 C-11.33716057 1.52632116 -7.90938974 1.23922192 -4 1 C-2 0 -2 0 0 0 Z " fill="#FFB2C1" transform="translate(276,318)"/>
<path d="M0 0 C0.21914063 1.02996094 0.43828125 2.05992187 0.6640625 3.12109375 C5.54936825 25.36347933 13.74059902 46.37344279 27 65 C27.40025391 65.56251465 27.80050781 66.1250293 28.21289062 66.70458984 C53.58738235 101.75935026 91.94003511 124.96311271 134.625 131.8125 C146.98394472 133.62352869 159.5311751 133.74504549 172 134 C172.39832031 134.81984375 172.79664063 135.6396875 173.20703125 136.484375 C173.73683594 137.56203125 174.26664063 138.6396875 174.8125 139.75 C175.33457031 140.81734375 175.85664063 141.8846875 176.39453125 142.984375 C177.86533803 145.97030157 177.86533803 145.97030157 179.76171875 148.203125 C180.17035156 148.79609375 180.57898438 149.3890625 181 150 C180 153 180 153 177.4296875 154.578125 C137.60983902 173.30658121 92.85385934 175.25226379 51.26855469 161.06835938 C30.15879146 153.43307853 10.58604462 142.66273439 -5.75 127.12890625 C-8.07273227 124.86353514 -8.07273227 124.86353514 -11.125 122.5625 C-19.92507731 114.71895283 -32.87931932 100.70294367 -34.43359375 88.6328125 C-34.44254976 80.59031356 -34.2557543 74.31895857 -28.421875 68.3984375 C-26.08491081 66.34569868 -23.65180092 64.47180569 -21.1328125 62.6484375 C-15.96575058 58.67889208 -13.43458081 54.38010939 -12 48 C-11.65919063 42.51296913 -12.86374929 38.05106343 -15.0625 33.0625 C-18.04979527 26.08120189 -18.19149453 19.29304433 -15.4375 12.1875 C-12.69056767 6.73273758 -6.60473634 0 0 0 Z " fill="#FF9DB0" transform="translate(34,152)"/>
<path d="M0 0 C1.59062256 0.00858032 1.59062256 0.00858032 3.21337891 0.01733398 C18.65884575 0.36895928 30.72931184 7.07386988 41.3671875 18.20703125 C50.05682942 28.78964496 53.79562908 39.96342629 53.625 53.5 C53.63660156 54.42039062 53.64820313 55.34078125 53.66015625 56.2890625 C53.60151026 70.16861283 47.9848914 81.87725995 38.4375 91.875 C26.59223162 103.0403285 12.58446527 107.92816122 -3.578125 107.70703125 C-18.14864017 106.75600009 -30.40271061 99.99802662 -40.3046875 89.4609375 C-49.32567023 78.53776671 -53.34307398 67.25345265 -53.25 53.1875 C-53.24427979 52.17856689 -53.23855957 51.16963379 -53.23266602 50.13012695 C-52.86893193 34.89860909 -45.98734993 22.85683307 -35.046875 12.3828125 C-24.43720846 3.68577292 -13.54779478 -0.08471393 0 0 Z " fill="#FFDCE2" transform="translate(255.75,214.5)"/>
</svg>
